<svg xmlns="http://www.w3.org/2000/svg" width="16.919" height="16.161" viewBox="0 0 16.919 16.161">
  <path id="Icon_awesome-star-half-alt" data-name="Icon awesome-star-half-alt" d="M16.052,5.414l-4.62-.673L9.367.562a1.014,1.014,0,0,0-1.815,0L5.487,4.741l-4.62.672a1.01,1.01,0,0,0-.56,1.723l3.342,3.251-.791,4.592a1.013,1.013,0,0,0,1,1.182,1,1,0,0,0,.469-.118l4.133-2.168,4.133,2.169a1.01,1.01,0,0,0,1.467-1.063l-.79-4.592,3.343-3.251a1.01,1.01,0,0,0-.56-1.723ZM12.209,9.3l-.572.556.135.785.616,3.581L9.165,12.533l-.706-.371V2.151l1.611,3.26.353.714.789.115,3.606.525L12.209,9.3Z" transform="translate(0)" fill="#ffc400"/>
</svg>
