<svg xmlns="http://www.w3.org/2000/svg" width="28.5" height="29.088" viewBox="0 0 28.5 29.088">
  <g id="nutrition" transform="translate(-5.182)">
    <path id="Path_13270" data-name="Path 13270" d="M17.65,100.323a.837.837,0,1,1,0-1.675h3.422c.659-3.212,3.733-5.028,6.238-3.625V80.512a.439.439,0,0,0-.439-.439H23.336A2.767,2.767,0,0,1,20.7,82H11.788a2.767,2.767,0,0,1-2.632-1.925H5.621a.44.44,0,0,0-.439.439v23.661a.44.44,0,0,0,.439.439H22.586a8.212,8.212,0,0,1-1.632-4.29Zm0-13.75h5.425a.837.837,0,0,1,0,1.675H17.65a.837.837,0,0,1,0-1.675Zm0,6.038h3.033a.837.837,0,1,1,0,1.675H17.65a.837.837,0,1,1,0-1.675Zm-2.826,5.344L11.6,101.146a.838.838,0,0,1-1.214-.037l-1.6-1.787a.838.838,0,0,1,1.249-1.116l1.008,1.129,2.6-2.571a.838.838,0,1,1,1.179,1.19Zm0-6.038L11.6,95.108a.838.838,0,0,1-1.214-.037l-1.6-1.787a.838.838,0,0,1,1.249-1.116L11.05,93.3l2.6-2.571a.838.838,0,1,1,1.179,1.19Zm0-6.038L11.6,89.07a.837.837,0,0,1-1.214-.037l-1.6-1.787a.838.838,0,0,1,1.249-1.116l1.008,1.13,2.6-2.571a.837.837,0,1,1,1.179,1.19Z" transform="translate(0 -75.524)" fill="#80c627"/>
    <path id="Path_13271" data-name="Path 13271" d="M103.411,4.8h8.916a1.087,1.087,0,0,0,0-2.175h-2.32a.837.837,0,0,1-.837-.837V1.3a1.3,1.3,0,1,0-2.6,0v.486a.837.837,0,0,1-.837.837h-2.32a1.087,1.087,0,0,0,0,2.175Z" transform="translate(-91.623)" fill="#80c627"/>
    <path id="Path_13272" data-name="Path 13272" d="M426.9,279.483a2.893,2.893,0,0,0,.621-2.384.278.278,0,0,0-.253-.253,2.891,2.891,0,0,0-2.384.621,3.5,3.5,0,0,0-.75,2.49.28.28,0,0,0,.275.275A3.492,3.492,0,0,0,426.9,279.483Z" transform="translate(-395.146 -261.097)" fill="#80c627"/>
    <path id="Path_13273" data-name="Path 13273" d="M322.785,366.359a3.1,3.1,0,0,0-2.307-2.028,2.409,2.409,0,0,0-2.236,1.153.837.837,0,0,1-1.349,0,2.41,2.41,0,0,0-2.237-1.153c-2.115.267-4.162,3.871-.96,7.828a1.584,1.584,0,0,0,.958.545h5.919a1.6,1.6,0,0,0,.866-.545C323,370.229,323.491,368.114,322.785,366.359Z" transform="translate(-289.419 -343.616)" fill="#80c627"/>
  </g>
</svg>
